<!DOCTYPE svg PUBLIC "-//W3C//DTD SVG 1.1//EN" "http://www.w3.org/Graphics/SVG/1.1/DTD/svg11.dtd">
<!-- Uploaded to: SVG Repo, www.svgrepo.com, Transformed by: SVG Repo Mixer Tools -->
<svg width="800px" height="800px" viewBox="0 0 24 24" xmlns="http://www.w3.org/2000/svg" id="mail" class="icon glyph" fill="#ffffff">
<g id="SVGRepo_bgCarrier" stroke-width="0"/>
<g id="SVGRepo_tracerCarrier" stroke-linecap="round" stroke-linejoin="round"/>
<g id="SVGRepo_iconCarrier">
<path d="M22,8.32V18a2,2,0,0,1-2,2H4a2,2,0,0,1-2-2V8.69L4,9.78l7.52,4.1A1,1,0,0,0,12,14a1,1,0,0,0,.5-.14L20,9.49Z" style="fill:#ffffff"/>
<path d="M22,6h0L20,7.18l-8,4.67L4,7.5,2,6.4V6A2,2,0,0,1,4,4H20A2,2,0,0,1,22,6Z" style="fill:#ffffff"/>
</g>
</svg>